# xmcd
#
# Track frame offsets:
#	150
#	17301
#	34192
#	49513
#	65497
#	80121
#	90084
#	112441
#	126992
#	144367
#	155795
#	170558
#	194141
#	211574
#
# Disc length: 3074 seconds
#
# Revision: 0
# Processed by: cddbd v1.4PL0 Copyright (c) Steve Scherf et al.
# Submitted via: audiograbber 1.81.00
#
DISCID=c20c000e
DTITLE=Vari - LE REGINE DELLA MUSICA
DYEAR=1900
DGENRE=Blues
TTITLE0=Nilla Pizza - Malasierra
TTITLE1=Milly - Capriccio
TTITLE2=Carla Boni - Acque Amare
TTITLE3=Flo Sandon's - T'ho voluto tanto bene
TTITLE4=Jula de Palma - Tua
TTITLE5=Marina Pagano - 'e piscature
TTITLE6=Mirna Doris - Serenata napulitane
TTITLE7=Nilla Pizzi - Eternamente
TTITLE8=Milly - Ninnolo
TTITLE9=Carla Boni - Jezebel
TTITLE10=Flo Sandon's - Verde luna
TTITLE11=Jula De Palma - Notte mia
TTITLE12=Marina Pagano - Bammenella 'e coppa 'o quartiere
TTITLE13=Mirna Doris - Scetate
EXTD=
EXTT0=
EXTT1=
EXTT2=
EXTT3=
EXTT4=
EXTT5=
EXTT6=
EXTT7=
EXTT8=
EXTT9=
EXTT10=
EXTT11=
EXTT12=
EXTT13=
PLAYORDER=
